# xmcd
#
# Track frame offsets: 
#        150
#        17513
#        35963
#        52989
#        71027
#        85916
#        105642
#        120530
#        139128
#        155141
#        173254
#
# Disc length: 2520 seconds
#
# Revision: 0
# Processed by: cddbd v1.5.2PL0 Copyright (c) Steve Scherf et al.
# Submitted via: ExactAudioCopy v0.99pb4
#
DISCID=8e09d60b
DTITLE=나비드 - Tell Me The World
DYEAR=2010
DGENRE=R&B
TTITLE0=고백
TTITLE1=I Can Give You Up
TTITLE2=독 (毒)
TTITLE3=I'm Your Lady
TTITLE4=Higher
TTITLE5=Don't Say Goodbye
TTITLE6=Say
TTITLE7=Shy Boy
TTITLE8=가슴에 남아서
TTITLE9=나밖에 모르던 그대
TTITLE10=백야 (白夜)
EXTD=
EXTT0=
EXTT1=
EXTT2=
EXTT3=
EXTT4=
EXTT5=
EXTT6=
EXTT7=
EXTT8=
EXTT9=
EXTT10=
PLAYORDER=
